<svg xmlns="http://www.w3.org/2000/svg" viewBox="0 0 512 512">
  <defs>
    <linearGradient id="bg" x1="0%" y1="0%" x2="100%" y2="100%">
      <stop offset="0%" stop-color="#ff8d3b" />
      <stop offset="100%" stop-color="#2cb1ff" />
    </linearGradient>
  </defs>
  <rect width="512" height="512" rx="120" fill="#0f1722" />
  <rect x="40" y="40" width="432" height="432" rx="104" fill="url(#bg)" opacity="0.18" />
  <path
    d="M150 144h94c72 0 118 39 118 112 0 74-47 112-118 112h-40v58h-54V144zm54 49v126h38c43 0 66-19 66-63 0-42-24-63-66-63h-38z"
    fill="#f4f7fb"
  />
  <path
    d="M316 344c20 0 36 16 36 36s-16 36-36 36-36-16-36-36 16-36 36-36z"
    fill="#ffcfab"
  />
</svg>
